<svg id="Layer_1" data-name="Layer 1" xmlns="http://www.w3.org/2000/svg" viewBox="0 0 679.4 512.14"><defs><style>.cls-1{fill:#a58746;}.cls-2{fill:#91753d;}.cls-3{fill:#a6c84f;}.cls-4{fill:#c74543;}.cls-5{fill:#ffd631;}.cls-6{fill:#2a343e;}.cls-7{fill:#f8cd45;}.cls-8{fill:#dbbb64;}.cls-9{fill:#c6a85c;}</style></defs><path class="cls-1" d="M394,390.58c9.31,19.71,14.35,27.56,17.21,43.16,2.31,12.63,1.35,20.22-.5,26.24-3.07,10-12.47,12.08-12.1,19.82.24,5.16,4.06,9.73,7.94,11.87,3,1.68,5.49,1.52,17.2.25,17.91-1.95,19.9-2.39,22-3,9.17-2.44,14.17-3.77,17.12-8.33,1.78-2.75,1.59-4.82,2.19-15.05.79-13.06.68-2.76,1.39-17.78.87-19,1.31-28.46,1-33.67-.82-13.39-3.82-20.44-6.36-27.19-20.28.11-43.17.05-68.79.11C392.85,388.2,393.4,389.37,394,390.58Z" transform="translate(-17.3 -85.73)"/><path class="cls-1" d="M255.83,387.75c3.65,9.89,5.66,15.7,6.37,19.25,2.23,10.92,8.63,42.43-6.33,54.92-5.93,4.94-11.23,3.57-22,12.54-5,4.2-10.39,8.77-9.57,13.72a7.07,7.07,0,0,0,.8,2.23c2.77,4.9,11.16,7.12,12.33,7.43,3.77,1,5,.4,17.14-.17,12.7-.59,13.57,0,16.35-1.26,5.48-2.4,7.87-7,12.37-15.37,0,0,8.67-16.11,15.85-28.79,10.1-17.82,13.1-17.45,17.23-27.77,5.55-13.84,4.5-30.71,4.5-30.71-.14-2.15-.32-4.2-.51-6.2C295.72,387.82,274.28,388,255.83,387.75Z" transform="translate(-17.3 -85.73)"/><path class="cls-2" d="M233.88,474.46c10.76-9,16.06-7.6,22-12.54,15-12.49,8.56-44,6.33-54.92-.71-3.55-2.72-9.36-6.37-19.25-8-.12-15.4-.32-22.28-.64a104.72,104.72,0,0,1,3.78,12.62c2.06,10.95,8,42.54-7.1,54.83-6,4.85-11.27,3.42-22.17,12.25-5.08,4.12-10.48,8.61-9.73,13.59,1,6.47,11.66,9.45,13,9.82,3.38.95,4.72.58,13.8.19a7.07,7.07,0,0,1-.8-2.23C223.49,483.23,228.83,478.66,233.88,474.46Z" transform="translate(-17.3 -85.73)"/><path class="cls-2" d="M515.51,402.73c8.14,9.93,11,17,12.26,23.2,2.14,10.21-5.08,16.6-1,23.21,2.7,4.39,8.27,6.55,12.69,6.54,3.48,0,5.55-1.33,15.18-8.1,14.73-10.36,16.27-11.72,17.86-13.24,6.84-6.58,10.58-10.17,11-15.57.22-3.29-.94-5-5.36-14.24-5.63-11.82-.73-2.75-7.39-16.24l-4.85-9.8c-15.14,5-37.45,7.05-67.81,7.9A88.83,88.83,0,0,1,515.51,402.73Z" transform="translate(-17.3 -85.73)"/><path class="cls-3" d="M221.87,193.36a13.92,13.92,0,0,1,13.22-9.56,14.52,14.52,0,0,1,2.65.26,209.47,209.47,0,0,1,52-36.19c0-7.51,3.41-13.58,7.58-13.58,2.91,0,5.43,3,6.7,7.31,3.72-1.45,7.51-2.81,11.36-4A21.53,21.53,0,0,1,318.82,122a11.3,11.3,0,0,0-2.09-1.16c-3.44-1.43-7.83-.32-16.48,2a116.17,116.17,0,0,0-21.09,7.26c-8.4,3.88-17.32,8-25.7,16.47-8.8,8.88-6.77,12.2-14.5,17.8-10,7.26-17,4.28-20.43,9.88-2.83,4.63-1.82,12.75,1.61,19.21.56,0,1.11-.09,1.68-.09Z" transform="translate(-17.3 -85.73)"/><path class="cls-3" d="M388.24,128.44a212.18,212.18,0,0,1,73.15,17.26c4.09-6.89,11-11.41,18.8-11.41,12.56,0,22.74,11.67,22.74,26.07a29.54,29.54,0,0,1-1.23,8.39,215.13,215.13,0,0,1,22.43,18.74,26.16,26.16,0,0,1,4.31-2,11,11,0,0,0,2.5-5.3,15.65,15.65,0,0,0-3.3-11.21c-4.25-5.32-9.61-3.75-15.81-10.54-.15-.16-1.64-2.09-4.62-5.94-5.06-6.54-5.52-7.22-5.93-7.9-3.57-5.9-1.79-8.06-3.95-11.21-5.73-8.32-23.78-1.38-27-7.91-1.78-3.59,3.14-6.75,1.32-12.52-1.54-4.87-7.06-9-10.55-7.91-4.44,1.38-1.91,10.1-7.25,13.84-4.38,3.07-11.55.11-25.7-5.93-16.62-7.1-17.59-10.5-17.8-11.87-.87-5.93,7.45-10,5.94-13.18s-11.61-2.74-19.78.66c-9.26,3.86-14.3,10.77-19.77,18.46-1.06,1.49-2.09,2.94-3.07,4.34C382.07,113.51,388.24,120.34,388.24,128.44Z" transform="translate(-17.3 -85.73)"/><path class="cls-3" d="M568,247.46a211.63,211.63,0,0,1,18.78,58.31c5.28,1.8,9.71,7,12.29,14,6.36.12,11.09-.49,16.58-.64a25.8,25.8,0,0,0,1-3.15c1.13-4.69.71-8.58,0-15.16-.32-3-1.09-6.85-2.63-14.5-2.39-11.82-3-13.74-2.64-17.79.41-4.67,1.45-4.81,2-9.89.57-5.48,0-11.44-1.32-15.16-4.92-13.87-27.5-17.19-31.64-17.8-2.09-.3-5-.73-8.34-1a29.37,29.37,0,0,1,.8,6.76A28.51,28.51,0,0,1,568,247.46Z" transform="translate(-17.3 -85.73)"/><path class="cls-3" d="M163.53,288.31c.65-8.38,6.87-15.06,14.69-15.78l.57-1.41a34.18,34.18,0,0,1-3.44-15.31,37.41,37.41,0,0,1,.6-6.63c-7.91.77-18.13,2.88-20.7,9.43-2.47,6.31,4.63,10.38,2.64,21.09a29.23,29.23,0,0,1-2.88,7.17,39.88,39.88,0,0,0,4.83,1C161.09,288.09,162.32,288.22,163.53,288.31Z" transform="translate(-17.3 -85.73)"/><path class="cls-4" d="M358.39,128.9q8.85-.78,18.07-.79,5.94,0,11.78.33c0-8.1-6.17-14.93-14.6-17.08a22.86,22.86,0,0,0-5.66-.72,21.23,21.23,0,0,0-16.29,7.23A22.06,22.06,0,0,1,358.39,128.9Z" transform="translate(-17.3 -85.73)"/><path class="cls-5" d="M315.35,137.55a196.06,196.06,0,0,1,43-8.65,22,22,0,0,0-43.31,5.39A21.83,21.83,0,0,0,315.35,137.55Z" transform="translate(-17.3 -85.73)"/><path class="cls-4" d="M297.29,134.29c-4.17,0-7.55,6.07-7.58,13.58q7-3.39,14.28-6.27C302.72,137.25,300.2,134.29,297.29,134.29Z" transform="translate(-17.3 -85.73)"/><path class="cls-4" d="M221.87,193.36a22.31,22.31,0,0,1,5.8.81q4.86-5.19,10.07-10.11a14.52,14.52,0,0,0-2.65-.26A13.92,13.92,0,0,0,221.87,193.36Z" transform="translate(-17.3 -85.73)"/><path class="cls-5" d="M221.87,193.36h-.05c-.57,0-1.12,0-1.68.09-12.68,1-22.71,12.56-22.71,26.77a29,29,0,0,0,2,10.62,245.72,245.72,0,0,1,28.24-36.67A22.31,22.31,0,0,0,221.87,193.36Z" transform="translate(-17.3 -85.73)"/><path class="cls-4" d="M178.79,271.12A252.22,252.22,0,0,1,198,233.07a11.5,11.5,0,0,0-6.54-2.14c-7.42,0-13.66,7.73-15.55,18.25a37.41,37.41,0,0,0-.6,6.63A34.18,34.18,0,0,0,178.79,271.12Z" transform="translate(-17.3 -85.73)"/><path class="cls-5" d="M163.53,288.31a48.33,48.33,0,0,0,9.16-.26q2.46-7.74,5.53-15.52C170.4,273.25,164.18,279.93,163.53,288.31Z" transform="translate(-17.3 -85.73)"/><path class="cls-5" d="M480.19,134.29c-7.82,0-14.71,4.52-18.8,11.41a212.81,212.81,0,0,1,40.31,23.05,29.54,29.54,0,0,0,1.23-8.39C502.93,146,492.75,134.29,480.19,134.29Z" transform="translate(-17.3 -85.73)"/><path class="cls-4" d="M541.51,206.3a21.34,21.34,0,0,1,7.58-1.41,21.68,21.68,0,0,1,12.18,3.8,15.83,15.83,0,0,0,1-5.44c0-10.74-10.77-19.45-24.06-19.45a28.84,28.84,0,0,0-9.75,1.68,26.16,26.16,0,0,0-4.31,2A214.83,214.83,0,0,1,541.51,206.3Z" transform="translate(-17.3 -85.73)"/><path class="cls-5" d="M541.51,206.3A213,213,0,0,1,568,247.46a28.51,28.51,0,0,0,4.83-16,29.37,29.37,0,0,0-.8-6.76,26.43,26.43,0,0,0-10.76-16,21.68,21.68,0,0,0-12.18-3.8A21.34,21.34,0,0,0,541.51,206.3Z" transform="translate(-17.3 -85.73)"/><path class="cls-5" d="M586.78,305.77q1.1,6.51,1.8,13.13c.43.06.84.14,1.28.19,3.49.41,6.49.59,9.21.65C596.49,312.74,592.06,307.57,586.78,305.77Z" transform="translate(-17.3 -85.73)"/><path class="cls-1" d="M109.94,340c11.48,1.77,18.54-.57,27.5-1.51,9.51-1,15.94.17,25.73,2.57a181.14,181.14,0,0,1,4.44-34.26c.33-1.45.67-2.91,1-4.37q1.76-7.12,4.05-14.36a48.33,48.33,0,0,1-9.16.26c-1.21-.09-2.44-.22-3.69-.41a39.88,39.88,0,0,1-4.83-1c-10.62-3-14-9.27-26-12.89-19.41-5.85-37.91,2.47-50,7.8-13.57,6-21.83,13.23-37.34,26.82A102.15,102.15,0,0,0,26.77,325c-8.65,11.85-9.68,18.68-9.44,23.33.13,2.46.38,6.61,3.22,8.61,2.41,1.68,5.1.68,11.8.32a104.71,104.71,0,0,1,10.83.2c16.15,0,35.66-18.95,37.65-16.82a59.17,59.17,0,0,1,12.32-2C100.76,338.18,106.05,339.39,109.94,340Zm12.49-34.66c2.22,1.67-.2,5.25-2.42,3.58a9.45,9.45,0,0,0-15.29,7.31c-.09,2.78-4.4,2.42-4.31-.36A13.78,13.78,0,0,1,122.43,305.32Z" transform="translate(-17.3 -85.73)"/><path class="cls-6" d="M104.72,316.21A9.45,9.45,0,0,1,120,308.9c2.22,1.67,4.64-1.91,2.42-3.58a13.78,13.78,0,0,0-22,10.53C100.32,318.63,104.63,319,104.72,316.21Z" transform="translate(-17.3 -85.73)"/><polygon class="cls-7" points="195.25 299.83 195.25 299.81 195.09 299.8 195.25 299.83"/><path class="cls-7" d="M164.17,362.27a21.44,21.44,0,0,1-.89-2.63c-1.39-5.14-.77-10-.36-14.54.12-1.26.21-2.5.24-3.69,0-.12,0-.24,0-.37-9.79-2.4-16.22-3.55-25.73-2.57-9,.94-16,3.28-27.5,1.51-3.89-.59-9.18-1.8-16.79-1.38a59.17,59.17,0,0,0-12.32,2c1.11,1.19-4.17,8-7.54,11.68A40.46,40.46,0,0,1,64.11,360c-9.29,5.57-14.45,2.94-23.42,9.12-5.64,3.88-5.8,6.44-5.79,7.25.06,2.84,2.76,5.43,5.44,6.35,3.1,1.11,6.06-.07,7.72-.7,6.12-2.33,12.68-3.31,18.77-5.7,10.88-4.26,20.08-5.6,27.83-6.74a142.42,142.42,0,0,1,22.68-1.29,225.72,225.72,0,0,1,37.77,3.43c9,1.54,16,3.17,22.35,4.83C171,372.94,166.65,368.3,164.17,362.27Z" transform="translate(-17.3 -85.73)"/><path class="cls-1" d="M634.3,320.71a83.44,83.44,0,0,0-18.65-1.61c-5.49.15-10.22.76-16.58.64-2.72-.06-5.72-.24-9.21-.65-.44,0-.85-.13-1.28-.19a214.69,214.69,0,0,1,1.18,22.51c0,4.19.85,8.43.44,12.88,2.69-.45,5.86-.88,9.77-1.26a178.14,178.14,0,0,1,43.22,1.1c32.46.1,51.33,8.83,53.34,3.76C699.17,351.25,670.49,327.51,634.3,320.71Z" transform="translate(-17.3 -85.73)"/><path class="cls-7" d="M600,353c-3.91.38-7.08.81-9.77,1.26a20.28,20.28,0,0,1-1.21,5.38c-.17.47-.36.92-.56,1.37a25.47,25.47,0,0,1-1.34,2.6c8.2-2.35,15-5.95,33.48-8.18a182.35,182.35,0,0,1,22.62-1.33A178.14,178.14,0,0,0,600,353Z" transform="translate(-17.3 -85.73)"/><path class="cls-8" d="M589,359.67a20.28,20.28,0,0,0,1.21-5.38c.41-4.45-.44-8.69-.44-12.88a214.69,214.69,0,0,0-1.18-22.51q-.71-6.63-1.8-13.13a212.34,212.34,0,0,0-45.27-99.47,214.15,214.15,0,0,0-80.12-60.6,212.18,212.18,0,0,0-73.15-17.26q-5.85-.33-11.78-.33-9.22,0-18.07.79a196.06,196.06,0,0,0-43,8.65c-3.85,1.24-7.64,2.6-11.36,4q-7.32,2.88-14.28,6.27a209.47,209.47,0,0,0-52,36.19q-5.2,4.92-10.07,10.11a245.72,245.72,0,0,0-28.24,36.67c-.47.74-.93,1.49-1.39,2.23a252.22,252.22,0,0,0-19.25,38.05l-.57,1.41q-3.08,7.77-5.53,15.52-2.3,7.23-4.05,14.36c-.36,1.46-.7,2.92-1,4.37A181.14,181.14,0,0,0,163.17,341c0,.13,0,.25,0,.37,0,1.19-.12,2.43-.24,3.69-.41,4.5-1,9.4.36,14.54a21.44,21.44,0,0,0,.89,2.63c2.48,6,6.86,10.67,13.29,14.23,8.19,4.54,19.72,7.34,34.93,9h.16c6.35.7,13.34,1.21,21,1.57,6.88.32,14.3.52,22.28.64,18.45.26,39.89.07,64.54-.18q22.85-.24,49.42-.44,11.59-.06,22.52-.08c25.62-.06,48.51,0,68.79-.11,13.44-.08,25.73-.23,36.94-.55,30.36-.85,52.67-2.91,67.81-7.9,10.32-3.41,17.31-8.17,21.24-14.85a25.47,25.47,0,0,0,1.34-2.6C588.63,360.59,588.82,360.14,589,359.67ZM206.32,348a6.24,6.24,0,1,1,6.23-6.24A6.24,6.24,0,0,1,206.32,348ZM243,276.56a2,2,0,1,1,2-2A2,2,0,0,1,243,276.56Zm18-29.1A10.11,10.11,0,1,1,271,237.35,10.11,10.11,0,0,1,260.93,247.46Zm23.51-69.34c0-5.18,2.78-9.37,6.21-9.37s6.2,4.19,6.2,9.37-2.78,9.37-6.2,9.37S284.44,183.3,284.44,178.12Zm8.84,179.2c-2,0-3.57-3.5-3.57-7.81s1.6-7.8,3.57-7.8,3.57,3.49,3.57,7.8S295.25,357.32,293.28,357.32Zm14.56-39.82c-6.07,0-11-2.63-11-5.86s4.92-5.87,11-5.87,11,2.63,11,5.87S313.91,317.5,307.84,317.5Zm3.57-46.38c-4.1,0-7.42-4.5-7.42-10.05s3.32-10,7.42-10,7.41,4.5,7.41,10S315.5,271.12,311.41,271.12Zm67.66-93a5.44,5.44,0,1,1-5.43,5.43A5.43,5.43,0,0,1,379.07,178.12ZM370,218.39a6.29,6.29,0,1,1,6.29,6.29A6.29,6.29,0,0,1,370,218.39Zm16.65,99.11a7.55,7.55,0,1,1,7.54-7.55A7.55,7.55,0,0,1,386.62,317.5Zm36.61-54.8a2.36,2.36,0,1,1,2.35-2.35A2.35,2.35,0,0,1,423.23,262.7Zm43.78-43a7.58,7.58,0,1,1,7.58,7.58A7.57,7.57,0,0,1,467,219.67Zm15.53,113.74a8,8,0,1,1,7.95-8A8,8,0,0,1,482.54,333.41Zm10-140c-5.73,0-10.38-3.43-10.38-7.66s4.65-7.67,10.38-7.67,10.39,3.43,10.39,7.67S498.28,193.45,492.54,193.45Zm27.83,99.73a6.56,6.56,0,1,1,6.55-6.55A6.56,6.56,0,0,1,520.37,293.18Zm25.77-36.47a4.63,4.63,0,1,1,4.63-4.63A4.63,4.63,0,0,1,546.14,256.71Zm20.4,112.83c-8.71,0-15.77-5.47-15.77-12.22s7.06-12.22,15.77-12.22,15.77,5.47,15.77,12.22S575.25,369.54,566.54,369.54Z" transform="translate(-17.3 -85.73)"/><ellipse class="cls-9" cx="273.35" cy="92.39" rx="6.2" ry="9.37"/><circle class="cls-9" cx="361.77" cy="97.82" r="5.43"/><circle class="cls-9" cx="358.96" cy="132.66" r="6.29"/><path class="cls-9" d="M482.16,219.67a7.58,7.58,0,1,0-7.57,7.58A7.57,7.57,0,0,0,482.16,219.67Z" transform="translate(-17.3 -85.73)"/><ellipse class="cls-9" cx="475.24" cy="100.05" rx="10.39" ry="7.67"/><path class="cls-9" d="M423.23,258a2.36,2.36,0,1,0,2.35,2.36A2.36,2.36,0,0,0,423.23,258Z" transform="translate(-17.3 -85.73)"/><ellipse class="cls-9" cx="294.11" cy="175.34" rx="7.41" ry="10.05"/><circle class="cls-9" cx="260.93" cy="237.35" r="10.11" transform="translate(-57.48 -32.11) rotate(-10.9)"/><path class="cls-9" d="M243,272.53a2,2,0,1,0,2,2A2,2,0,0,0,243,272.53Z" transform="translate(-17.3 -85.73)"/><ellipse class="cls-9" cx="290.54" cy="225.9" rx="10.99" ry="5.86"/><circle class="cls-9" cx="386.62" cy="309.95" r="7.54" transform="translate(-123.23 278.43) rotate(-45)"/><path class="cls-9" d="M482.54,317.5a8,8,0,1,0,7.95,7.95A8,8,0,0,0,482.54,317.5Z" transform="translate(-17.3 -85.73)"/><circle class="cls-9" cx="503.06" cy="200.9" r="6.56"/><path class="cls-9" d="M546.14,247.46a4.63,4.63,0,1,0,4.63,4.62A4.62,4.62,0,0,0,546.14,247.46Z" transform="translate(-17.3 -85.73)"/><ellipse class="cls-9" cx="549.24" cy="271.59" rx="15.77" ry="12.22"/><circle class="cls-9" cx="206.32" cy="341.71" r="6.24" transform="translate(-69.37 -48.27) rotate(-9.22)"/><path class="cls-9" d="M293.28,341.71c-2,0-3.57,3.49-3.57,7.8s1.6,7.81,3.57,7.81,3.57-3.5,3.57-7.81S295.25,341.71,293.28,341.71Z" transform="translate(-17.3 -85.73)"/><path class="cls-2" d="M100.79,513.34a4.33,4.33,0,0,0,3.75-4.25v-.43a4.33,4.33,0,0,0-4.25-3.74h-.43L50,510.61a4.2,4.2,0,0,0-3.75,4.17v.43A4.28,4.28,0,0,0,50.46,519h.43l17.21-2c0,11.81-.07,5.26-.14,17.29l-.22,17.49c-.14,5.84-.28,11.67-.5,17.5s-.43,11.67-.72,17.43v.5a8,8,0,0,0,7.63,8h.51a8,8,0,0,0,8-7.63c.29-5.9.58-11.81.79-17.71l.43-17.72c.29-11.52.29-15,.36-26.5v-9.28a6.56,6.56,0,0,0-.14-1.16Z" transform="translate(-17.3 -85.73)"/><path class="cls-2" d="M150.62,545.1c-.29-3.53-.72-7.06-1.3-10.66a101.36,101.36,0,0,0-2.3-10.8c-.5-1.8-1.08-3.67-1.8-5.55-.29-.93-.72-1.87-1.15-2.88l-.72-1.51-.94-1.51a15.45,15.45,0,0,0-2.45-3.1,13.32,13.32,0,0,0-1.87-1.58,16.44,16.44,0,0,0-2.52-1.22,9.08,9.08,0,0,0-2.81-.44h-.65a2.46,2.46,0,0,0-.79.08,5.74,5.74,0,0,0-1.58.28,16.44,16.44,0,0,0-2.52,1.23,17.81,17.81,0,0,0-1.73,1.51,18.31,18.31,0,0,0-2.16,2.95,24.91,24.91,0,0,0-1.44,2.81c-.79,1.8-1.44,3.53-2.09,5.33-1.15,3.45-2.09,6.91-3,10.37-2.16,8.21-1.87,7.41-3.67,15.26-1.3,5-1.23,4.83-2.45,10.08l-1.3,5c-.93,3.32-1.87,6.63-3,9.8-.5,1.65-1.08,3.24-1.66,4.82L102.88,580c-.72,1.44-1.44,2.88-2.23,4.25A20.27,20.27,0,0,1,98,587.8l-.29.36a4.29,4.29,0,0,0,.8,6,4.14,4.14,0,0,0,2.52.8,4.2,4.2,0,0,0,3.38-1.66l.07-.07a32.23,32.23,0,0,0,3.17-5c.87-1.73,1.59-3.46,2.31-5.12,1.22-3.16,2.3-6.33,3.31-9.43l.65-.21a103.81,103.81,0,0,1,11.52-3.25,43.35,43.35,0,0,1,8.06-.93,13.68,13.68,0,0,1,1.8.07c.22,2.74.43,5.47.72,8.21l.29,2.66c.14.94.29,1.8.36,2.74.29,1.73.58,3.53.94,5.33a8,8,0,0,0,7.92,6.48h.57a8.12,8.12,0,0,0,7.56-8.14V586c-.93-13.18-.57-7.35-1.36-20.17C151.84,559,151.34,552.08,150.62,545.1Zm-17.14,15.69a51.68,51.68,0,0,0-9.14,1c-3,.58-6,1.37-8.28,2l1.65-6.19,1.3-5.12c1.8-6.69,3.53-13.39,5.61-19.94.51-1.59,1-3.24,1.59-4.83a49.27,49.27,0,0,1,1.8-4.6A28.09,28.09,0,0,1,130.1,519a17.3,17.3,0,0,1,1.15-1.73l.43-.5a4.05,4.05,0,0,1,.43,1l.51,1.73a18.55,18.55,0,0,1,.36,2.09c.21,1.44.43,3,.57,4.61.65,9.36.44,9.43.8,20,.14,4.82.21,9.72.43,14.61Z" transform="translate(-17.3 -85.73)"/><path class="cls-2" d="M209.44,571.09l-.79-.07a4.18,4.18,0,0,0-4.18,3.38.46.46,0,0,0-.07.29l-.29,1.37-.64,1.73a19,19,0,0,1-1.95,3.24l-1.15,1.29A5.82,5.82,0,0,1,199,583.4a5.88,5.88,0,0,1-1.44.87,7,7,0,0,1-1.51.65,13,13,0,0,1-3.24.5,14.3,14.3,0,0,1-1.73-.07,9.63,9.63,0,0,1-1.51-.29,8.67,8.67,0,0,1-2.59-1.22,7.11,7.11,0,0,1-1.16-.94l-1.08-1.08a21,21,0,0,1-1.8-2.74l-.79-1.58c-.43-1.08-.57-1.3-1-2.52l-.86-2.74-.86-3.74c-.51-2.59-.87-5.26-1.16-7.92s-.36-5.4-.43-8.14v-1.15a85.33,85.33,0,0,1,1.3-15l.86-3.89a40.38,40.38,0,0,1,4-10.36,14.78,14.78,0,0,1,4.25-4.61,8.4,8.4,0,0,1,2.59-1.16,9.91,9.91,0,0,1,1.45-.36l.71-.07.65-.14a8.48,8.48,0,0,1,1.37.07,2.06,2.06,0,0,1,.65.07l.65.22a6.41,6.41,0,0,1,2.59,1.65,10.55,10.55,0,0,1,2,2.81,8.66,8.66,0,0,1,.64,1.73l.22.94a.91.91,0,0,1,.07.43v.29a4.22,4.22,0,0,0,4.11,3.38,3.61,3.61,0,0,0,.86-.07,4.1,4.1,0,0,0,3.38-4.1,3.65,3.65,0,0,0-.07-.87c0-.29-.07-.14-.14-.43l-.07-.29a2.47,2.47,0,0,0-.29-.72l-.43-1.22-1.08-2.45a30.87,30.87,0,0,0-2.81-4.83c-.29-.36-.65-.72-.94-1.15l-1-1.08a21.26,21.26,0,0,0-2.37-2,8.78,8.78,0,0,0-1.37-.8,10.18,10.18,0,0,0-1.44-.72l-1.51-.64-1.59-.44-1.51-.28a11.64,11.64,0,0,0-1.58-.15h-.87l-2.16.07a21.79,21.79,0,0,0-6.05,1.66,25,25,0,0,0-5.25,3.17,18.33,18.33,0,0,0-2.23,1.94l-2,2.09a41.53,41.53,0,0,0-5.83,9.15,55.19,55.19,0,0,0-3.53,9.64,68.65,68.65,0,0,0-1.94,9.94,86.31,86.31,0,0,0-.51,8.64v1.3a68.37,68.37,0,0,0,.79,10,54,54,0,0,0,2.45,9.86,45.69,45.69,0,0,0,1.87,4.83l1.23,2.37,1.29,2.38a47.25,47.25,0,0,0,3.32,4.46,27.52,27.52,0,0,0,4.17,4,15.83,15.83,0,0,0,2.52,1.73,18.94,18.94,0,0,0,2.74,1.37,19.45,19.45,0,0,0,6,1.44l2.16.07h.86c.94-.07,1.87-.21,2.81-.36a20.9,20.9,0,0,0,5.47-1.8,17,17,0,0,0,2.52-1.36,27.51,27.51,0,0,0,2.31-1.81,22.34,22.34,0,0,0,3.74-4.1,29.07,29.07,0,0,0,2.67-4.61,17.77,17.77,0,0,0,1.08-2.37,10.48,10.48,0,0,0,.5-1.3l.36-1,.07-.43a3.17,3.17,0,0,0,.08-.86A4.23,4.23,0,0,0,209.44,571.09Z" transform="translate(-17.3 -85.73)"/><path class="cls-2" d="M275.61,542.86a13.29,13.29,0,0,0-.21-1.65l-.22-1.66c-.15-1.08-.36-2.16-.58-3.24a60.34,60.34,0,0,0-1.73-6.48,42.66,42.66,0,0,0-2.44-6.34c-.44-1.08-1-2.08-1.52-3.09s-1.15-2-1.8-3a37.73,37.73,0,0,0-4.46-5.83,21.57,21.57,0,0,0-6.48-4.75,14.17,14.17,0,0,0-1.87-.79,9.7,9.7,0,0,0-2-.58,19.89,19.89,0,0,0-4.1-.5h-.58a24,24,0,0,0-7.78,1.29,23,23,0,0,0-3.74,1.8,30.88,30.88,0,0,0-3.39,2.31,33,33,0,0,0-5.32,5.61,37,37,0,0,0-3.89,6.2,60.29,60.29,0,0,0-4.9,13.1,77.08,77.08,0,0,0-2,13.54l-.15,4,.07,2.88c.08,2.3.22,4.61.51,6.91s.79,4.61,1.37,7a50.42,50.42,0,0,0,2.3,6.91,42.48,42.48,0,0,0,3.67,6.84,29,29,0,0,0,5.69,6.26,27.84,27.84,0,0,0,3.6,2.6,31.77,31.77,0,0,0,4.18,1.87,23.66,23.66,0,0,0,4.39,1.08,31.18,31.18,0,0,0,3.6.29h.79a25.7,25.7,0,0,0,8.79-1.66,25.23,25.23,0,0,0,7.49-4.54,28.32,28.32,0,0,0,2.95-2.95c.86-1,1.65-2.09,2.45-3.17a29.52,29.52,0,0,0,1.94-3.24,33.15,33.15,0,0,0,1.58-3.31,44.06,44.06,0,0,0,2.31-6.77,46.7,46.7,0,0,0,1.37-6.77,80.3,80.3,0,0,0,.79-10.87l-.07-2.59C276,547.26,275.9,545,275.61,542.86Zm-10.08,3.53c0,.94-.07,1.88-.14,2.88-.22,1.88-.44,3.75-.8,5.62a48,48,0,0,1-1.36,5.47,43.27,43.27,0,0,1-4.11,9.87l-1.37,2.08-1.44,1.88c-.5.57-1.08,1.08-1.58,1.58L253.15,577a10,10,0,0,1-5.91,1.87h-.65a10.11,10.11,0,0,1-3.38-.58,11.31,11.31,0,0,1-3-1.51,18.43,18.43,0,0,1-5-6.7,38.41,38.41,0,0,1-3-9.86,60.26,60.26,0,0,1-.86-10.87c.07-1.88.14-3.68.36-5.55s.5-3.67.79-5.4a51.9,51.9,0,0,1,3.17-10.3,28.66,28.66,0,0,1,2.45-4.39,17.87,17.87,0,0,1,2.88-3.53l1.65-1.37c.58-.36,1.16-.72,1.73-1a10.41,10.41,0,0,1,3.75-.87l1.36-.07a11.55,11.55,0,0,1,2.74.29l2.09.57,2,1a13.07,13.07,0,0,1,3.67,3.46,17.45,17.45,0,0,1,1.44,2.23,26.24,26.24,0,0,1,1.15,2.45,47,47,0,0,1,1.66,5.33c.43,1.87.72,3.74,1,5.61s.29,3.82.29,5.69C265.6,544.45,265.6,545.46,265.53,546.39Z" transform="translate(-17.3 -85.73)"/><path class="cls-2" d="M334.22,568.43a19.13,19.13,0,0,0-1.88-3.89c-.36-.58-.72-1.15-1.15-1.73a12.36,12.36,0,0,0-1.29-1.51,24.51,24.51,0,0,0-2.74-2.67c-.94-.79-1.87-1.51-2.81-2.16-1.87-1.22-3.74-2.3-5.47-3.24l-5.19-2.59c-1.65-.79-3.24-1.51-4.75-2.3a43.69,43.69,0,0,1-4.1-2.31,18.49,18.49,0,0,1-3.17-2.45L301,543l-.57-.65a12.15,12.15,0,0,1-.94-1.3,10.69,10.69,0,0,1-1.3-2.95,14.76,14.76,0,0,1-.36-1.73,18,18,0,0,1-.21-1.94v-.5a2.73,2.73,0,0,1,.07-.72l.07-.8.22-.93.65-1.87.86-2a24.16,24.16,0,0,1,5-7,14.09,14.09,0,0,1,6.77-3.88,6.85,6.85,0,0,1,1.94-.29c.72-.07,1.44-.07,2.16-.07a9.17,9.17,0,0,1,1.94.28,8.38,8.38,0,0,1,1.88.58,10.3,10.3,0,0,1,1.73.86l1.51,1.3.72.79.65.87a12.42,12.42,0,0,1,1.15,1.94,18,18,0,0,1,1.44,4.47,13.86,13.86,0,0,1,.36,2.37l.07,1.23v.57l-.07.51a4.23,4.23,0,0,0,4.17,4.24c2.67,0,4.25-1.87,4.25-4.68a7.24,7.24,0,0,1-.14-1.22l-.22-1.58c-.14-1.09-.36-2.09-.57-3.1a39.43,39.43,0,0,0-1.88-6.12,12.2,12.2,0,0,0-.72-1.51,5.65,5.65,0,0,0-.79-1.44,14.81,14.81,0,0,0-1.87-2.88,20.07,20.07,0,0,0-5.33-4.83,17,17,0,0,0-3.24-1.65,24.19,24.19,0,0,0-3.38-1.08,20.77,20.77,0,0,0-4.32-.65H310a22.2,22.2,0,0,0-3.67.57,21.52,21.52,0,0,0-3.46,1,29.35,29.35,0,0,0-6.26,3.39c-.94.64-1.87,1.36-2.74,2.08a27.37,27.37,0,0,0-2.45,2.38,37.59,37.59,0,0,0-4.25,5.26,36.68,36.68,0,0,0-3.24,6.19,28.12,28.12,0,0,0-1.15,3.67,17.29,17.29,0,0,0-.36,2,1.42,1.42,0,0,0-.07.57,1.29,1.29,0,0,0-.07.51l-.07.93v.29a31.56,31.56,0,0,0,.14,3.6A26.63,26.63,0,0,0,284,545.6a18.28,18.28,0,0,0,1.73,3.6,26.51,26.51,0,0,0,4.75,6.12,37,37,0,0,0,5.62,4.32,55.34,55.34,0,0,0,5.61,3.1c1.87.93,3.67,1.73,5.4,2.45s3.39,1.37,4.9,2.08,3,1.37,4.32,2c.57.36,1.22.72,1.73,1.08a12.51,12.51,0,0,1,1.37,1,8.19,8.19,0,0,1,1.87,2.09,7.06,7.06,0,0,1,.5,1.29l.36,1.59.07.72-.07.79a5.38,5.38,0,0,1-.29,1.51,7.76,7.76,0,0,1-1.51,2.88,10.25,10.25,0,0,1-2.81,2.45l-1.87.86c-.72.29-1.44.51-2.16.72a22.17,22.17,0,0,1-2.3.51c-.8.14-1.59.21-2.38.29a2.06,2.06,0,0,1-.65.07l-1.22.07h-.58c-.79,0-1.51,0-2.23-.07a11.19,11.19,0,0,1-4.11-1.15,7.86,7.86,0,0,1-2.87-2.45,7.51,7.51,0,0,1-.87-1.66l-.29-1.29v-.22a4.28,4.28,0,0,0-4.24-3.82h-.37a4.21,4.21,0,0,0-3.74,4.18v.72l.07.14v.29a1.24,1.24,0,0,1,.15.51l.28.93a18.23,18.23,0,0,0,.73,1.73,20.1,20.1,0,0,0,1.87,3.17,19.09,19.09,0,0,0,5.4,4.82,24.11,24.11,0,0,0,6.48,2.45c1.08.22,2.16.43,3.24.58a3,3,0,0,1,.79.07c.79,0,.72.07,1.58.07l.8.07c1,0,2.08,0,3.09-.07s2.16-.14,3.24-.29a26.5,26.5,0,0,0,3.24-.64,18,18,0,0,0,3.32-1,22.2,22.2,0,0,0,6.33-3.82,20.4,20.4,0,0,0,4.83-6.19,24.36,24.36,0,0,0,1.44-3.75,18.62,18.62,0,0,0,.64-4l.08-1v-.93l-.15-2A27.5,27.5,0,0,0,334.22,568.43Z" transform="translate(-17.3 -85.73)"/><path class="cls-2" d="M392.18,545.1c-.29-3.53-.72-7.06-1.3-10.66a106.55,106.55,0,0,0-2.3-10.8c-.51-1.8-1.08-3.67-1.8-5.55a29.4,29.4,0,0,0-1.16-2.88l-.72-1.51-.93-1.51a15.45,15.45,0,0,0-2.45-3.1,13.91,13.91,0,0,0-1.87-1.58,16.91,16.91,0,0,0-2.52-1.22,9.17,9.17,0,0,0-2.81-.44h-.65a2.4,2.4,0,0,0-.79.08,5.82,5.82,0,0,0-1.59.28,16.91,16.91,0,0,0-2.52,1.23,18.9,18.9,0,0,0-1.72,1.51,17.72,17.72,0,0,0-2.16,2.95,24.91,24.91,0,0,0-1.44,2.81c-.8,1.8-1.44,3.53-2.09,5.33-1.15,3.45-2.09,6.91-2.95,10.37-2.16,8.21-1.88,7.41-3.68,15.26-1.29,5-1.22,4.83-2.45,10.08l-1.29,5c-.94,3.32-1.87,6.63-2.95,9.8-.51,1.65-1.08,3.24-1.66,4.82L344.44,580c-.72,1.44-1.44,2.88-2.24,4.25a19.75,19.75,0,0,1-2.66,3.53l-.29.36a4.33,4.33,0,0,0-.86,2.59,4.28,4.28,0,0,0,1.65,3.38,4.32,4.32,0,0,0,5.91-.86l.07-.07a33,33,0,0,0,3.17-5c.86-1.73,1.58-3.46,2.3-5.12,1.23-3.16,2.31-6.33,3.31-9.43l.65-.21A104.59,104.59,0,0,1,367,570.15a43.53,43.53,0,0,1,8.07-.93,13.76,13.76,0,0,1,1.8.07c.21,2.74.43,5.47.72,8.21l.29,2.66c.14.94.28,1.8.36,2.74.29,1.73.57,3.53.93,5.33a8,8,0,0,0,7.92,6.48h.58a8.12,8.12,0,0,0,7.56-8.14V586c-.94-13.18-.58-7.35-1.37-20.17C393.4,559,392.9,552.08,392.18,545.1ZM375,560.79a51.78,51.78,0,0,0-9.15,1c-3,.58-6,1.37-8.28,2l1.66-6.19,1.3-5.12c1.8-6.69,3.52-13.39,5.61-19.94.51-1.59,1-3.24,1.59-4.83a49.27,49.27,0,0,1,1.8-4.6,27.14,27.14,0,0,1,2.08-4.18,17.29,17.29,0,0,1,1.16-1.73l.43-.5a4.47,4.47,0,0,1,.43,1l.5,1.73a16.54,16.54,0,0,1,.36,2.09c.22,1.44.44,3,.58,4.61.65,9.36.43,9.43.79,20,.15,4.82.22,9.72.43,14.61Z" transform="translate(-17.3 -85.73)"/><path class="cls-2" d="M467.63,545.17c0-9.07.44-19.87,1.52-32.4l.07-.8a8.17,8.17,0,0,0-7.42-8h-.65a8.08,8.08,0,0,0-8.06,7.42c-1.08,12.38-1.66,24-1.66,34.2l.07,5.26c-.14,1.08-.36,2.16-.57,3.24l-1.08,5.18c-.43,1.66-.87,3.39-1.37,5l-.79,2.52-.87,2.45a50.59,50.59,0,0,1-1.94,4.68,48.47,48.47,0,0,1-2.45,4.25,17.92,17.92,0,0,1-2.88,3.6,13.79,13.79,0,0,1-1.58,1.37,11.56,11.56,0,0,1-1.73,1,7.67,7.67,0,0,1-3,.64h-.86l-.65-.07a1.1,1.1,0,0,1-.65-.14,4.56,4.56,0,0,1-1.51-.51,6.71,6.71,0,0,1-1.22-.79,5,5,0,0,1-1-1.08,18.18,18.18,0,0,1-2.95-6.84c-.36-1.44-.58-2.95-.87-4.46s-.36-3.1-.5-4.76-.29-3.24-.36-4.89c-.07-.87-.07-1.73-.07-2.52s-.07-1.73-.07-2.52v-2.59l.07-2.6c0-.79,0-1.65.07-2.52l.22-5.18.57-7.85.94-10.44c.65-5,.57-5.18,1.15-10.37l.07-1.08a8.07,8.07,0,0,0-6.26-7.85,8.6,8.6,0,0,0-1.88-.21c-4.32,0-7.2,2.73-8.2,7.7l-.29,1.37c-.22.93-.36,1.87-.51,2.73-.36,1.88-.64,3.75-.93,5.55-.58,3.74-1,7.42-1.37,11.16-.14,1.87-.29,3.74-.36,5.62-.07.93-.14,1.87-.14,2.8s-.08,2-.08,2.89l-.07,2.8.07,2.88c0,1.88.08,3.82.22,5.76a19.2,19.2,0,0,0,.22,2.88c.07.94.14,1.95.28,2.88.22,1.95.44,3.89.87,5.91s.79,3.89,1.37,5.9a47.8,47.8,0,0,0,2.16,6,36.63,36.63,0,0,0,3.38,5.9,21.65,21.65,0,0,0,2.3,2.81,21.27,21.27,0,0,0,3,2.6,18.81,18.81,0,0,0,7.2,3.24,22.43,22.43,0,0,0,4.32.36l.43-.08h.94l1.87-.28a20.84,20.84,0,0,0,3.53-1.08,23.48,23.48,0,0,0,3.24-1.66,22.16,22.16,0,0,0,5-4.54,32.82,32.82,0,0,0,3.6-5.11,44.91,44.91,0,0,0,2.59-5.33l1.3-3.38c.36,2.16.79,4.1,1.22,6,1.58,6.7,3.89,11.74,6.91,15.27a8.2,8.2,0,0,0,6.2,2.81,8.07,8.07,0,0,0,6.12-13.32C470.58,580.74,467.63,568.35,467.63,545.17Z" transform="translate(-17.3 -85.73)"/><path class="cls-2" d="M545.18,587.29h-.51a13,13,0,0,1-2.3.15,5.74,5.74,0,0,1-3.53-.87c-1.94-1.51-2.52-5.83-3.17-10.44-.72-5.61-1.51-12-5.11-17.28a23.93,23.93,0,0,0-2.45-3c7.71-2.38,12-6.7,14.26-9.94a24.34,24.34,0,0,0,4.32-13v-.8a27.72,27.72,0,0,0-3-12.38,26.07,26.07,0,0,0-23.61-14,22.89,22.89,0,0,0-17.57,7.49,10.57,10.57,0,0,0-1.23,1.36v-2a8.07,8.07,0,1,0-16.13,0c0,9.07-.07,8.85-.14,18.58-.07,6.19-.15,12.38-.29,18.57s-.21,12.39-.43,18.58-.43,12.39-.79,18.51v.43a8.11,8.11,0,0,0,7.7,8.06h.43a8.11,8.11,0,0,0,8.07-7.63c.29-6.34.58-12.6.79-18.86l.43-18.73c.07-3.17.15-6.33.15-9.5.64-7,2.45-16.13,7.63-21.68a14.76,14.76,0,0,1,11.38-4.68,17.54,17.54,0,0,1,16.13,9.51,17.87,17.87,0,0,1,2,8.28,16.07,16.07,0,0,1-2.73,9.14c-3.6,5.19-10.37,7.92-19.3,7.92l-3.31-.14c-1.16-.14-2.38-.29-3.68-.36h-.79l-.21.07H508l-.07.08h-.22l-.07.07h-.14l-.08.07h-.07l-.22.07-.07.07h-.14l-.07.07-.07.08-.08.07h-.14l-.07.07-.07.07-.08.08-.07.07-.14.07-.51.5-.07.15h-.07l-.14.29-.08.07-.14.29-.07.07V551l-.08.07-.07.29-.07.15-.07.21v.15l-.07.07v1.51l.07.14.07.36.07.08v.14l.07.07v.15l.08.07.21.43.08.07.07.07.14.29.15.15.07.07.07.07.07.07.07.07.07.08.08.07.07.07.07.07.15.07.07.08.14.07.07.07.08.07h.07l.28.15.08.07h.14l.15.07.14.07h.22l.07.07h.21l.15.08c1.29.14,2.52.28,3.74.36,13,1.94,14.11,10.37,15.34,19.94.79,6.12,1.66,12.39,6.34,16.06a13.64,13.64,0,0,0,8.71,2.66,28.25,28.25,0,0,0,3.38-.21,4.32,4.32,0,0,0,3.67-4.25V591A4.32,4.32,0,0,0,545.18,587.29Z" transform="translate(-17.3 -85.73)"/><path class="cls-2" d="M618.62,545.17c0-9.07.43-19.87,1.51-32.4l.07-.8a8.17,8.17,0,0,0-7.42-8h-.65a8.08,8.08,0,0,0-8.06,7.42c-1.08,12.38-1.66,24-1.66,34.2l.08,5.26c-.15,1.08-.36,2.16-.58,3.24l-1.08,5.18c-.43,1.66-.86,3.39-1.37,5l-.79,2.52-.86,2.45c-.58,1.59-1.23,3.17-1.95,4.68a46.06,46.06,0,0,1-2.45,4.25,17.92,17.92,0,0,1-2.88,3.6,13.79,13.79,0,0,1-1.58,1.37,11.08,11.08,0,0,1-1.73,1,7.63,7.63,0,0,1-3,.64h-.87l-.65-.07a1.07,1.07,0,0,1-.64-.14,4.62,4.62,0,0,1-1.52-.51,6.71,6.71,0,0,1-1.22-.79,5,5,0,0,1-1-1.08,18.34,18.34,0,0,1-2.95-6.84c-.36-1.44-.58-2.95-.86-4.46s-.36-3.1-.51-4.76-.29-3.24-.36-4.89c-.07-.87-.07-1.73-.07-2.52s-.07-1.73-.07-2.52v-2.59l.07-2.6c0-.79,0-1.65.07-2.52l.22-5.18.57-7.85.94-10.44c.65-5,.58-5.18,1.15-10.37l.07-1.08a8.07,8.07,0,0,0-6.26-7.85,8.51,8.51,0,0,0-1.87-.21c-4.32,0-7.2,2.73-8.21,7.7l-.29,1.37c-.22.93-.36,1.87-.5,2.73-.36,1.88-.65,3.75-.94,5.55-.58,3.74-1,7.42-1.37,11.16-.14,1.87-.29,3.74-.36,5.62-.07.93-.14,1.87-.14,2.8s-.07,2-.07,2.89l-.08,2.8.08,2.88c0,1.88.07,3.82.21,5.76a19.2,19.2,0,0,0,.22,2.88c.07.94.14,1.95.29,2.88a57.29,57.29,0,0,0,.86,5.91c.36,1.94.79,3.89,1.37,5.9a47.8,47.8,0,0,0,2.16,6,36.63,36.63,0,0,0,3.38,5.9,20.93,20.93,0,0,0,2.31,2.81,20.62,20.62,0,0,0,2.95,2.6,18.81,18.81,0,0,0,7.2,3.24,22.5,22.5,0,0,0,4.32.36l.43-.08h.94l1.87-.28a20.3,20.3,0,0,0,3.53-1.08,23.48,23.48,0,0,0,3.24-1.66,22,22,0,0,0,5-4.54,32.82,32.82,0,0,0,3.6-5.11,44.91,44.91,0,0,0,2.59-5.33l1.3-3.38c.36,2.16.79,4.1,1.22,6,1.59,6.7,3.89,11.74,6.92,15.27a8.17,8.17,0,0,0,6.19,2.81,8.07,8.07,0,0,0,6.12-13.32C621.57,580.74,618.62,568.35,618.62,545.17Z" transform="translate(-17.3 -85.73)"/><path class="cls-2" d="M682.69,568.43a19.09,19.09,0,0,0-1.87-3.89c-.36-.58-.72-1.15-1.15-1.73a11.65,11.65,0,0,0-1.3-1.51,24.44,24.44,0,0,0-2.73-2.67c-.94-.79-1.87-1.51-2.81-2.16-1.87-1.22-3.74-2.3-5.47-3.24l-5.19-2.59c-1.65-.79-3.24-1.51-4.75-2.3a43.69,43.69,0,0,1-4.1-2.31,18.49,18.49,0,0,1-3.17-2.45l-.65-.57-.58-.65a13.58,13.58,0,0,1-.93-1.3,10.69,10.69,0,0,1-1.3-2.95,14.76,14.76,0,0,1-.36-1.73,18,18,0,0,1-.21-1.94v-.5a2.73,2.73,0,0,1,.07-.72l.07-.8.22-.93.64-1.87.87-2a24.16,24.16,0,0,1,5-7,14.1,14.1,0,0,1,6.76-3.88,7,7,0,0,1,1.95-.29c.72-.07,1.44-.07,2.16-.07a9.27,9.27,0,0,1,1.94.28,8.38,8.38,0,0,1,1.88.58,9.86,9.86,0,0,1,1.72.86l1.52,1.3.72.79.64.87a11.71,11.71,0,0,1,1.16,1.94,18.42,18.42,0,0,1,1.44,4.47,14.93,14.93,0,0,1,.36,2.37l.07,1.23v.57l-.07.51a4.23,4.23,0,0,0,4.17,4.24c2.67,0,4.25-1.87,4.25-4.68a7.24,7.24,0,0,1-.14-1.22l-.22-1.58c-.14-1.09-.36-2.09-.58-3.1a39.37,39.37,0,0,0-1.87-6.12,12.2,12.2,0,0,0-.72-1.51,5.65,5.65,0,0,0-.79-1.44,14.81,14.81,0,0,0-1.87-2.88,20.07,20.07,0,0,0-5.33-4.83,17,17,0,0,0-3.24-1.65,24.19,24.19,0,0,0-3.38-1.08,20.87,20.87,0,0,0-4.32-.65h-2.74a22.2,22.2,0,0,0-3.67.57,21.22,21.22,0,0,0-3.46,1,29.35,29.35,0,0,0-6.26,3.39c-.94.64-1.88,1.36-2.74,2.08a26.09,26.09,0,0,0-2.45,2.38,37.59,37.59,0,0,0-4.25,5.26,36.68,36.68,0,0,0-3.24,6.19,28.12,28.12,0,0,0-1.15,3.67,17.29,17.29,0,0,0-.36,2,1.42,1.42,0,0,0-.07.57,1.29,1.29,0,0,0-.07.51l-.08.93v.29a29.47,29.47,0,0,0,.15,3.6,25.74,25.74,0,0,0,1.73,7.49,18.23,18.23,0,0,0,1.72,3.6,26.82,26.82,0,0,0,4.76,6.12,37.46,37.46,0,0,0,5.61,4.32,56.53,56.53,0,0,0,5.62,3.1c1.87.93,3.67,1.73,5.4,2.45s3.38,1.37,4.9,2.08,3,1.37,4.32,2c.57.36,1.22.72,1.73,1.08a11.45,11.45,0,0,1,1.36,1,8.25,8.25,0,0,1,1.88,2.09,7.06,7.06,0,0,1,.5,1.29l.36,1.59.07.72-.07.79a5.38,5.38,0,0,1-.29,1.51,7.91,7.91,0,0,1-1.51,2.88,10.4,10.4,0,0,1-2.81,2.45l-1.87.86c-.72.29-1.44.51-2.16.72a21.8,21.8,0,0,1-2.31.51c-.79.14-1.58.21-2.37.29a2.06,2.06,0,0,1-.65.07l-1.22.07h-.58c-.79,0-1.51,0-2.23-.07a11.19,11.19,0,0,1-4.11-1.15,8,8,0,0,1-2.88-2.45,7.47,7.47,0,0,1-.86-1.66l-.29-1.29v-.22a4.29,4.29,0,0,0-4.25-3.82h-.36a4.21,4.21,0,0,0-3.74,4.18v.72l.07.14v.29a1.39,1.39,0,0,1,.14.51l.29.93c.22.58.44,1.15.72,1.73a20.17,20.17,0,0,0,1.88,3.17,19,19,0,0,0,5.4,4.82,23.86,23.86,0,0,0,6.48,2.45c1.08.22,2.16.43,3.24.58a3.06,3.06,0,0,1,.79.07c.79,0,.72.07,1.58.07l.79.07c1,0,2.09,0,3.1-.07s2.16-.14,3.24-.29a26.5,26.5,0,0,0,3.24-.64,18.08,18.08,0,0,0,3.31-1,22.11,22.11,0,0,0,6.34-3.82,20.37,20.37,0,0,0,4.82-6.19,23.38,23.38,0,0,0,1.44-3.75,18,18,0,0,0,.65-4l.08-1v-.93l-.15-2A26.35,26.35,0,0,0,682.69,568.43Z" transform="translate(-17.3 -85.73)"/></svg>